# xmcd
#
# Track frame offsets: 
#        150
#        7030
#        20995
#        37210
#        48515
#        62055
#        76720
#        83630
#        97780
#        103565
#        118392
#        133165
#        147695
#        161942
#        174712
#        189870
#        199565
#        213567
#
# Disc length: 2963 seconds
#
# Revision: 2
# Processed by: cddbd v1.5.2PL0 Copyright (c) Steve Scherf et al.
# Submitted via: ExactAudioCopy v1.0b6
#
DISCID=060b9112
DTITLE=渡辺俊幸 - 銀河漂流バイファム13 オリジナル・サウンドトラック Vol.1
DYEAR=1998
DGENRE=Anime
TTITLE0=KATSUMI - オメガの扉 ～HELLO, VIFAM～ (TVサイズ)
TTITLE1=タウト星に向かって航行中
TTITLE2=再び13人
TTITLE3=MOTHER
TTITLE4=つかの間の安らぎ
TTITLE5=戦場真っ只中! 必死の逃避行
TTITLE6=総員奮戦せよ!バイファム登場!!
TTITLE7=双子の赤ちゃん! 神様の贈り物?
TTITLE8=隊長ルルドの特別勤務 謎の石版奪回?
TTITLE9=ゆうれい女の正体?
TTITLE10=ルルドの宣戦布告 脱出へのカウントダウン
TTITLE11=さらば愛しのJr.たち
TTITLE12=隊長ルルド 感動!
TTITLE13=ラピスの母艦キエフ号
TTITLE14=両親はどこに
TTITLE15=きっと逢える!!
TTITLE16=ぼくらの選択 タウト星をめざせ!
TTITLE17=前田愛、前田亜季 - DON'T CRY (TVサイズ)
EXTD=
EXTT0=
EXTT1=
EXTT2=
EXTT3=
EXTT4=
EXTT5=
EXTT6=
EXTT7=
EXTT8=
EXTT9=
EXTT10=
EXTT11=
EXTT12=
EXTT13=
EXTT14=
EXTT15=
EXTT16=
EXTT17=
PLAYORDER=
